<?xml version="1.0" encoding="iso-8859-1"?>
<!-- Generator: Adobe Illustrator 19.0.0, SVG Export Plug-In . SVG Version: 6.00 Build 0)  -->
<svg version="1.1" id="Layer_1" xmlns="http://www.w3.org/2000/svg" xmlns:xlink="http://www.w3.org/1999/xlink" x="0px" y="0px"
	 viewBox="0 0 511.999 511.999" style="enable-background:new 0 0 511.999 511.999;" xml:space="preserve">
<g>
	<g>
		<path d="M418.011,147.31c-48.449-42.696-123.293-33.612-160.207,19.376L256,169.279l-1.805-2.592
			c-36.913-52.988-111.758-62.072-160.207-19.376C60.685,176.659,24.949,206.139,0,221.262c19.346,9.647,52.159,7.854,86.68,5.96
			c53.177-2.916,118.456-6.498,169.32,30.138c50.865-36.635,116.144-33.054,169.318-30.138c34.522,1.894,67.335,3.685,86.68-5.96
			C487.05,206.139,451.314,176.659,418.011,147.31z"/>
	</g>
</g>
<g>
	<g>
		<path d="M423.475,260.829c-53.665-2.947-114.49-6.282-156.339,30.657L256,301.314l-11.136-9.829
			c-41.848-36.939-102.675-33.601-156.339-30.657c-25.762,1.411-50.716,2.778-72.566-0.367l72.619,66.288
			c94.831,86.564,240.013,86.564,334.845,0l72.617-66.286C474.189,263.609,449.237,262.242,423.475,260.829z"/>
	</g>
</g>
<g>
</g>
<g>
</g>
<g>
</g>
<g>
</g>
<g>
</g>
<g>
</g>
<g>
</g>
<g>
</g>
<g>
</g>
<g>
</g>
<g>
</g>
<g>
</g>
<g>
</g>
<g>
</g>
<g>
</g>
</svg>
