<?xml version="1.0" encoding="UTF-8"?>
<!DOCTYPE svg PUBLIC "-//W3C//DTD SVG 1.1//EN" "http://www.w3.org/Graphics/SVG/1.1/DTD/svg11.dtd">
<!-- Creator: CorelDRAW 2019 (64-Bit) -->
<svg xmlns="http://www.w3.org/2000/svg" xml:space="preserve" width="581px" height="274px" version="1.1" style="shape-rendering:geometricPrecision; text-rendering:geometricPrecision; image-rendering:optimizeQuality; fill-rule:evenodd; clip-rule:evenodd"
viewBox="0 0 581 274.67"
 xmlns:xlink="http://www.w3.org/1999/xlink">
 <defs>
  <style type="text/css">
   <![CDATA[
    .fil203 {fill:#5D5B5C}
    .fil204 {fill:#5C5B5B}
    .fil200 {fill:#605E5E}
    .fil201 {fill:#5F5D5D}
    .fil202 {fill:#5E5C5C}
    .fil196 {fill:#636161}
    .fil197 {fill:#626161}
    .fil198 {fill:#616060}
    .fil199 {fill:#605F5F}
    .fil193 {fill:#656464}
    .fil194 {fill:#646363}
    .fil195 {fill:#646262}
    .fil185 {fill:#6B6A6A}
    .fil186 {fill:#6B6969}
    .fil187 {fill:#6A6868}
    .fil188 {fill:#696868}
    .fil189 {fill:#686767}
    .fil190 {fill:#676666}
    .fil191 {fill:#666565}
    .fil192 {fill:#666464}
    .fil184 {fill:#6C6B6B}
    .fil183 {fill:#6D6C6C}
    .fil178 {fill:#717070}
    .fil179 {fill:#706F6F}
    .fil180 {fill:#6F6E6E}
    .fil181 {fill:#6F6D6D}
    .fil182 {fill:#6E6C6C}
    .fil173 {fill:#757474}
    .fil174 {fill:#747373}
    .fil175 {fill:#737272}
    .fil176 {fill:#727171}
    .fil177 {fill:#717071}
    .fil170 {fill:#777676}
    .fil171 {fill:#767575}
    .fil172 {fill:#757474}
    .fil163 {fill:#7D7C7C}
    .fil164 {fill:#7C7B7B}
    .fil165 {fill:#7B7A7A}
    .fil166 {fill:#7A7979}
    .fil167 {fill:#797879}
    .fil168 {fill:#797778}
    .fil169 {fill:#787777}
    .fil162 {fill:#7D7C7D}
    .fil155 {fill:#838282}
    .fil156 {fill:#828181}
    .fil157 {fill:#818080}
    .fil158 {fill:#807F80}
    .fil159 {fill:#807F7F}
    .fil160 {fill:#7F7E7E}
    .fil161 {fill:#7E7D7D}
    .fil154 {fill:#838283}
    .fil151 {fill:#868585}
    .fil152 {fill:#858484}
    .fil153 {fill:#848383}
    .fil148 {fill:#888787}
    .fil149 {fill:#878687}
    .fil150 {fill:#868586}
    .fil144 {fill:#8A8A8A}
    .fil145 {fill:#8A898A}
    .fil146 {fill:#898889}
    .fil147 {fill:#888888}
    .fil140 {fill:#8D8D8D}
    .fil141 {fill:#8D8C8C}
    .fil142 {fill:#8C8B8C}
    .fil143 {fill:#8B8B8B}
    .fil134 {fill:#919192}
    .fil135 {fill:#919091}
    .fil136 {fill:#908F90}
    .fil137 {fill:#8F8F8F}
    .fil138 {fill:#8E8E8E}
    .fil139 {fill:#8E8D8E}
    .fil133 {fill:#929292}
    .fil129 {fill:#959595}
    .fil130 {fill:#949494}
    .fil131 {fill:#939394}
    .fil132 {fill:#939293}
    .fil125 {fill:#989798}
    .fil126 {fill:#979697}
    .fil127 {fill:#969697}
    .fil128 {fill:#959596}
    .fil124 {fill:#989899}
    .fil118 {fill:#9C9C9D}
    .fil119 {fill:#9C9C9C}
    .fil120 {fill:#9B9B9B}
    .fil121 {fill:#9A9A9B}
    .fil122 {fill:#9A999A}
    .fil123 {fill:#999899}
    .fil114 {fill:#9F9FA0}
    .fil115 {fill:#9E9E9F}
    .fil116 {fill:#9D9D9E}
    .fil117 {fill:#9D9D9E}
    .fil110 {fill:#A2A2A3}
    .fil111 {fill:#A1A1A2}
    .fil112 {fill:#A0A0A1}
    .fil113 {fill:#A0A0A0}
    .fil107 {fill:#A4A4A5}
    .fil108 {fill:#A3A3A4}
    .fil109 {fill:#A2A2A3}
    .fil104 {fill:#A6A6A7}
    .fil105 {fill:#A5A5A6}
    .fil106 {fill:#A4A4A5}
    .fil103 {fill:#A7A6A7}
    .fil96 {fill:#ABABAC}
    .fil97 {fill:#AAABAB}
    .fil98 {fill:#AAAAAB}
    .fil99 {fill:#A9A9AA}
    .fil100 {fill:#A8A8A9}
    .fil101 {fill:#A7A8A9}
    .fil102 {fill:#A7A7A8}
    .fil95 {fill:#ACABAD}
    .fil88 {fill:#B0B0B1}
    .fil89 {fill:#AFAFB0}
    .fil90 {fill:#AFAFAF}
    .fil91 {fill:#AEAEAF}
    .fil92 {fill:#ADADAE}
    .fil93 {fill:#ADADAD}
    .fil94 {fill:#ACACAD}
    .fil85 {fill:#B2B2B3}
    .fil86 {fill:#B1B1B2}
    .fil87 {fill:#B0B1B2}
    .fil80 {fill:#B5B5B6}
    .fil81 {fill:#B4B4B5}
    .fil82 {fill:#B4B4B4}
    .fil83 {fill:#B3B3B4}
    .fil84 {fill:#B2B2B3}
    .fil75 {fill:#B8B8B9}
    .fil76 {fill:#B7B8B8}
    .fil77 {fill:#B7B7B8}
    .fil78 {fill:#B6B6B7}
    .fil79 {fill:#B5B6B6}
    .fil74 {fill:#B9B9B9}
    .fil73 {fill:#B9B9BA}
    .fil65 {fill:#BEBFBF}
    .fil66 {fill:#BEBEBF}
    .fil67 {fill:#BDBDBE}
    .fil68 {fill:#BCBCBD}
    .fil69 {fill:#BCBCBC}
    .fil70 {fill:#BBBBBC}
    .fil71 {fill:#BABABB}
    .fil72 {fill:#BABABA}
    .fil62 {fill:#C0C0C1}
    .fil63 {fill:#BFC0C0}
    .fil64 {fill:#BFBFBF}
    .fil58 {fill:#C3C3C3}
    .fil59 {fill:#C2C2C3}
    .fil60 {fill:#C1C1C2}
    .fil61 {fill:#C1C1C1}
    .fil55 {fill:#C4C5C5}
    .fil56 {fill:#C3C4C5}
    .fil57 {fill:#C3C3C4}
    .fil51 {fill:#C7C7C7}
    .fil52 {fill:#C6C7C7}
    .fil53 {fill:#C5C6C6}
    .fil54 {fill:#C5C5C6}
    .fil50 {fill:#C7C7C8}
    .fil46 {fill:#CACACA}
    .fil47 {fill:#C9C9CA}
    .fil48 {fill:#C8C8C9}
    .fil49 {fill:#C8C8C8}
    .fil43 {fill:#CBCCCC}
    .fil44 {fill:#CBCBCB}
    .fil45 {fill:#CACACB}
    .fil40 {fill:#CDCDCE}
    .fil41 {fill:#CCCDCD}
    .fil42 {fill:#CBCCCC}
    .fil36 {fill:#CFCFD0}
    .fil37 {fill:#CFCFCF}
    .fil38 {fill:#CECECF}
    .fil39 {fill:#CDCDCE}
    .fil35 {fill:#D0D0D0}
    .fil29 {fill:#D3D3D4}
    .fil30 {fill:#D2D3D3}
    .fil31 {fill:#D2D2D2}
    .fil32 {fill:#D1D1D2}
    .fil33 {fill:#D0D1D1}
    .fil34 {fill:#D0D0D0}
    .fil28 {fill:#D4D4D4}
    .fil26 {fill:#D4D4D5}
    .fil27 {fill:#D4D4D5}
    .fil20 {fill:#D8D8D8}
    .fil21 {fill:#D7D8D8}
    .fil22 {fill:#D7D7D7}
    .fil23 {fill:#D6D6D7}
    .fil24 {fill:#D5D6D6}
    .fil25 {fill:#D5D5D5}
    .fil18 {fill:#D9D9D9}
    .fil19 {fill:#D8D8D9}
    .fil16 {fill:#DADADA}
    .fil17 {fill:#D9D9DA}
    .fil13 {fill:gainsboro}
    .fil14 {fill:#DBDBDB}
    .fil15 {fill:#DADADA}
    .fil7 {fill:#DFDFE0}
    .fil8 {fill:#DEDFDF}
    .fil9 {fill:#DEDEDE}
    .fil10 {fill:#DDDDDE}
    .fil11 {fill:#DCDDDD}
    .fil12 {fill:gainsboro}
    .fil6 {fill:#DFDFE0}
    .fil5 {fill:#E0E0E0}
    .fil2 {fill:#E1E1E1}
    .fil3 {fill:#E1E1E1}
    .fil4 {fill:#E0E0E0}
    .fil1 {fill:#E0E0E0}
    .fil0 {fill:#2F2D2D;fill-rule:nonzero}
   ]]>
  </style>
     <clipPath id="id0">
      <path d="M290.5 0c114.88,0 218.28,25.65 290.5,66.6l-113.49 0c-44.21,-35.83 -107.15,-58.23 -177.01,-58.23 -69.86,0 -132.8,22.4 -177.01,58.23l-113.49 0c72.21,-40.95 175.62,-66.6 290.5,-66.6zm0.7 121.75c54.25,0 103.09,-15.28 137.2,-39.67 -35.43,0 -70.86,0 -106.3,0l0 6.87 45.36 0c-20.24,17.29 -46.97,27.81 -76.26,27.81 -33,0 -62.72,-13.34 -83.6,-34.68l-53.61 0c34.11,24.39 82.95,39.67 137.21,39.67zm-0.7 26.93c114.88,0 218.28,-25.65 290.5,-66.6l-113.49 0c-44.21,35.83 -107.15,58.23 -177.01,58.23 -69.86,0 -132.8,-22.4 -177.01,-58.23l-113.49 0c72.21,40.95 175.62,66.6 290.5,66.6zm0.7 -121.75c54.25,0 103.09,15.28 137.2,39.67l-53.6 0c-19.94,-20.38 -47.95,-33.46 -79.17,-34.6l0 34.6 -8.87 0 0 -34.6c-31.21,1.14 -59.22,14.22 -79.16,34.6l-53.61 0c34.11,-24.39 82.95,-39.67 137.21,-39.67z"/>
     </clipPath>
 </defs>
 <g id="Layer_x0020_1">
  <metadata id="CorelCorpID_0Corel-Layer"/>
  <g id="_2828208633312">
   <path class="fil0" d="M175.32 212.34l0 -14.97c0,-1.06 -0.38,-1.83 -1.13,-2.3 -0.76,-0.48 -1.62,-0.83 -2.58,-1.04l-63.89 0c-1.85,0.05 -2.77,1.17 -2.77,3.34l0 14.97c0.82,1.59 1.74,2.38 2.77,2.38l30.66 0 34.16 0c0.89,-0.1 1.82,-0.9 2.78,-2.38zm-25.52 11.54l-9.67 0 -19.03 0 -18.73 0c-5.41,0 -8.12,-3.13 -8.12,-9.4l0 -21.09c0,-5.41 2.74,-8.11 8.23,-8.11l75.51 0c5.22,0 7.82,2.7 7.82,8.11l0 21.09c0,6.27 -2.6,9.4 -7.82,9.4l-19.03 0 -9.16 0zm145.74 0l-10.39 0 -0.1 -29.69 -26.96 0c-0.96,0.16 -1.85,1.03 -2.67,2.62l0 27.07 -10.7 0 0 -8.12 0 -21.09c0,-6.27 2.43,-9.39 7.3,-9.39l19.55 0 19.03 0 9.88 0.07 8.95 -0.07 19.03 0c5.22,0 7.82,3.12 7.82,9.39l0 21.09 0 8.12 -10.49 0 0 -12.1 0 -14.97c-1.1,-1.53 -2.06,-2.41 -2.88,-2.62l-27.37 0 0 29.69zm133.6 -15.68l0 -8.12 57.61 0 0 14.4c0,6.27 -2.6,9.4 -7.81,9.4l-19.04 0 -8.95 0 -9.87 0 -19.04 0 -19.55 0c-4.87,0 -7.3,-3.13 -7.3,-9.4l0 -21.09c0,-5.41 2.43,-8.11 7.3,-8.11l76.45 0 7.81 0 0 8.75 -78.08 0c-1.86,0.05 -2.78,1.17 -2.78,3.34l0 7.48 0 7.49c0.82,1.59 1.75,2.38 2.78,2.38l30.66 0 34.15 0 2.78 -2.38 0 -4.14 -47.12 0z"/>
   <g>
    <g style="clip-path:url(#id0)">
     <polygon class="fil1" points="286.44,75.86 290.63,74.9 290.96,76.34 286.77,77.3 "/>
     <path id="1" class="fil2" d="M287.2 75.94l0.21 0.96 2.8 -0.64 -0.22 -0.96 -2.79 0.64zm-2.26 -0.24l6.97 -1.59 0.55 2.39 -6.97 1.59 -0.55 -2.39z"/>
     <path id="2" class="fil3" d="M285.69 75.78l0.44 1.91 5.58 -1.27 -0.44 -1.91 -5.58 1.27zm-2.25 -0.24l9.76 -2.23 0.77 3.35 -9.77 2.23 -0.76 -3.35z"/>
     <path id="3" class="fil4" d="M284.19 75.62l0.65 2.87 8.37 -1.91 -0.65 -2.87 -8.37 1.91zm-2.26 -0.23l12.56 -2.88 0.98 4.3 -12.55 2.88 -0.99 -4.3z"/>
     <path id="4" class="fil5" d="M282.68 75.46l0.88 3.83 11.16 -2.55 -0.88 -3.83 -11.16 2.55zm-2.25 -0.23l15.34 -3.51 1.2 5.25 -15.34 3.51 -1.2 -5.25z"/>
     <path id="5" class="fil6" d="M281.18 75.31l1.09 4.78 13.95 -3.19 -1.09 -4.79 -13.95 3.2zm-2.26 -0.24l18.14 -4.15 1.42 6.21 -18.14 4.15 -1.42 -6.21z"/>
     <path id="6" class="fil7" d="M279.68 75.15l1.31 5.73 16.74 -3.83 -1.31 -5.73 -16.74 3.83zm-2.26 -0.24l20.92 -4.79 1.64 7.17 -20.92 4.79 -1.64 -7.17z"/>
     <path id="7" class="fil8" d="M278.17 74.99l1.53 6.69 19.53 -4.47 -1.53 -6.69 -19.53 4.47zm-2.26 -0.24l23.72 -5.42 1.86 8.12 -23.72 5.42 -1.86 -8.12z"/>
     <path id="8" class="fil9" d="M276.67 74.83l1.75 7.65 22.31 -5.11 -1.74 -7.65 -22.32 5.11zm-2.26 -0.24l26.5 -6.06 2.08 9.08 -26.5 6.06 -2.08 -9.08z"/>
     <path id="9" class="fil10" d="M275.16 74.67l1.97 8.6 25.11 -5.74 -1.97 -8.6 -25.11 5.74zm-2.25 -0.24l29.29 -6.7 2.3 10.04 -29.3 6.7 -2.29 -10.04z"/>
     <path id="10" class="fil11" d="M273.66 74.51l2.18 9.56 27.9 -6.38 -2.18 -9.56 -27.9 6.38zm-2.26 -0.24l32.08 -7.33 2.52 10.99 -32.08 7.34 -2.52 -11z"/>
     <path id="11" class="fil12" d="M272.15 74.35l2.41 10.52 30.69 -7.02 -2.41 -10.52 -30.69 7.02zm-2.25 -0.24l34.87 -7.97 2.73 11.95 -34.87 7.97 -2.73 -11.95z"/>
     <path id="12" class="fil13" d="M270.65 74.19l2.62 11.47 33.48 -7.65 -2.62 -11.47 -33.48 7.65zm-2.26 -0.23l37.67 -8.62 2.95 12.91 -37.66 8.61 -2.96 -12.9z"/>
     <path id="13" class="fil14" d="M269.15 74.03l2.84 12.43 36.27 -8.29 -2.85 -12.43 -36.26 8.29zm-2.26 -0.23l40.45 -9.26 3.17 13.86 -40.45 9.26 -3.17 -13.86z"/>
     <path id="14" class="fil15" d="M267.64 73.88l3.06 13.38 39.06 -8.93 -3.06 -13.39 -39.06 8.94zm-2.25 -0.24l43.24 -9.89 3.39 14.81 -43.25 9.89 -3.38 -14.81z"/>
     <path id="15" class="fil16" d="M266.14 73.72l3.28 14.33 41.84 -9.57 -3.28 -14.33 -41.84 9.57zm-2.26 -0.24l46.03 -10.53 3.61 15.77 -46.03 10.53 -3.61 -15.77z"/>
     <path id="16" class="fil17" d="M264.63 73.56l3.5 15.29 44.64 -10.21 -3.5 -15.29 -44.64 10.21zm-2.25 -0.24l48.82 -11.17 3.82 16.73 -48.82 11.17 -3.82 -16.73z"/>
     <path id="17" class="fil18" d="M263.13 73.4l3.72 16.25 47.42 -10.85 -3.71 -16.25 -47.43 10.85zm-2.26 -0.24l51.61 -11.8 4.05 17.68 -51.61 11.8 -4.05 -17.68z"/>
     <path id="18" class="fil19" d="M261.62 73.24l3.94 17.21 50.22 -11.49 -3.94 -17.2 -50.22 11.48zm-2.25 -0.24l54.4 -12.44 4.26 18.64 -54.4 12.44 -4.26 -18.64z"/>
     <path id="19" class="fil20" d="M260.12 73.08l4.15 18.16 53.01 -12.12 -4.15 -18.16 -53.01 12.12zm-2.26 -0.24l57.2 -13.08 4.48 19.6 -57.19 13.08 -4.49 -19.6z"/>
     <path id="20" class="fil21" d="M258.62 72.92l4.37 19.12 55.8 -12.76 -4.38 -19.12 -55.79 12.76zm-2.26 -0.24l59.98 -13.71 4.7 20.55 -59.98 13.71 -4.7 -20.55z"/>
     <path id="21" class="fil22" d="M257.11 72.76l4.59 20.08 58.59 -13.4 -4.59 -20.08 -58.59 13.4zm-2.25 -0.23l62.77 -14.36 4.92 21.51 -62.78 14.35 -4.91 -21.5z"/>
     <path id="22" class="fil23" d="M255.61 72.6l4.81 21.03 61.37 -14.03 -4.81 -21.03 -61.37 14.03zm-2.26 -0.23l65.56 -15 5.14 22.46 -65.56 15 -5.14 -22.46z"/>
     <path id="23" class="fil24" d="M254.1 72.45l5.03 21.98 64.17 -14.68 -5.03 -21.98 -64.17 14.68zm-2.25 -0.24l68.35 -15.64 5.35 23.42 -68.35 15.64 -5.35 -23.42z"/>
     <path id="24" class="fil25" d="M252.6 72.29l5.25 22.94 66.95 -15.32 -5.25 -22.94 -66.95 15.32zm-2.26 -0.24l71.14 -16.27 5.58 24.37 -71.14 16.27 -5.58 -24.37z"/>
     <path id="25" class="fil26" d="M251.1 72.13l5.46 23.89 69.75 -15.95 -5.47 -23.89 -69.74 15.95zm-2.26 -0.24l73.93 -16.91 5.79 25.33 -73.93 16.91 -5.79 -25.33z"/>
     <path id="26" class="fil27" d="M249.59 71.97l5.69 24.85 72.53 -16.59 -5.68 -24.85 -72.54 16.59zm-2.26 -0.24l76.73 -17.55 6.01 26.29 -76.72 17.55 -6.02 -26.29z"/>
     <path id="27" class="fil28" d="M248.09 71.81l5.9 25.81 75.32 -17.23 -5.9 -25.81 -75.32 17.23zm-2.26 -0.24l79.51 -18.18 6.23 27.24 -79.51 18.18 -6.23 -27.24z"/>
     <path id="28" class="fil29" d="M246.58 71.65l6.12 26.76 78.12 -17.86 -6.12 -26.76 -78.12 17.86zm-2.25 -0.24l82.3 -18.82 6.45 28.2 -82.3 18.82 -6.45 -28.2z"/>
     <path id="29" class="fil30" d="M245.08 71.49l6.34 27.72 80.9 -18.5 -6.34 -27.72 -80.9 18.5zm-2.26 -0.24l85.09 -19.46 6.67 29.16 -85.09 19.46 -6.67 -29.16z"/>
     <path id="30" class="fil31" d="M243.57 71.33l6.56 28.68 83.7 -19.14 -6.56 -28.68 -83.7 19.14zm-2.25 -0.24l87.88 -20.09 6.88 30.11 -87.88 20.09 -6.88 -30.11z"/>
     <path id="31" class="fil32" d="M242.07 71.17l6.78 29.64 86.48 -19.78 -6.78 -29.64 -86.48 19.78zm-2.26 -0.23l90.67 -20.74 7.11 31.07 -90.67 20.73 -7.11 -31.06z"/>
     <path id="32" class="fil33" d="M240.57 71.02l6.99 30.58 89.28 -20.42 -7 -30.58 -89.27 20.42zm-2.26 -0.24l93.46 -21.38 7.32 32.02 -93.46 21.38 -7.32 -32.02z"/>
     <path id="33" class="fil34" d="M239.06 70.86l7.22 31.54 92.06 -21.06 -7.22 -31.54 -92.06 21.06zm-2.25 -0.24l96.24 -22.01 7.55 32.97 -96.25 22.02 -7.54 -32.98z"/>
     <path id="34" class="fil35" d="M237.56 70.7l7.43 32.5 94.85 -21.7 -7.43 -32.5 -94.85 21.7zm-2.26 -0.24l99.04 -22.65 7.76 33.93 -99.04 22.65 -7.76 -33.93z"/>
     <path id="35" class="fil36" d="M236.05 70.54l7.65 33.45 97.65 -22.33 -7.65 -33.45 -97.65 22.33zm-2.25 -0.24l101.83 -23.29 7.97 34.89 -101.82 23.29 -7.98 -34.89z"/>
     <path id="36" class="fil37" d="M234.55 70.38l7.87 34.41 100.43 -22.97 -7.87 -34.41 -100.43 22.97zm-2.26 -0.24l104.62 -23.93 8.2 35.85 -104.62 23.93 -8.2 -35.85z"/>
     <path id="37" class="fil38" d="M233.04 70.22l8.09 35.37 103.23 -23.61 -8.09 -35.37 -103.23 23.61zm-2.25 -0.24l107.41 -24.56 8.41 36.8 -107.4 24.56 -8.42 -36.8z"/>
     <path id="38" class="fil39" d="M231.54 70.06l8.31 36.32 106.01 -24.24 -8.31 -36.32 -106.01 24.24zm-2.26 -0.24l110.2 -25.2 8.64 37.76 -110.2 25.2 -8.64 -37.76z"/>
     <path id="39" class="fil40" d="M230.04 69.9l8.52 37.28 108.81 -24.88 -8.53 -37.28 -108.8 24.88zm-2.26 -0.24l112.99 -25.84 8.85 38.72 -112.99 25.84 -8.85 -38.72z"/>
     <path id="40" class="fil41" d="M228.53 69.74l8.75 38.24 111.59 -25.52 -8.75 -38.24 -111.59 25.52zm-2.25 -0.23l115.77 -26.48 9.08 39.66 -115.78 26.48 -9.07 -39.66z"/>
     <path id="41" class="fil42" d="M227.03 69.59l8.96 39.19 114.38 -26.16 -8.96 -39.19 -114.38 26.16zm-2.26 -0.24l118.57 -27.12 9.29 40.62 -118.57 27.12 -9.29 -40.62z"/>
     <path id="42" class="fil43" d="M225.52 69.43l9.19 40.14 117.17 -26.8 -9.18 -40.14 -117.18 26.8zm-2.25 -0.24l121.35 -27.76 9.51 41.58 -121.35 27.76 -9.51 -41.58z"/>
     <path id="43" class="fil44" d="M224.02 69.27l9.4 41.1 119.96 -27.44 -9.4 -41.1 -119.96 27.44zm-2.26 -0.24l124.15 -28.39 9.73 42.53 -124.15 28.39 -9.73 -42.53z"/>
     <path id="44" class="fil45" d="M222.52 69.11l9.61 42.06 122.76 -28.08 -9.62 -42.06 -122.75 28.08zm-2.26 -0.24l126.94 -29.03 9.94 43.49 -126.93 29.03 -9.95 -43.49z"/>
     <path id="45" class="fil46" d="M221.01 68.95l9.84 43.01 125.54 -28.71 -9.84 -43.01 -125.54 28.71zm-2.25 -0.24l129.72 -29.67 10.17 44.45 -129.73 29.67 -10.16 -44.45z"/>
     <path id="46" class="fil47" d="M219.51 68.79l10.05 43.97 128.33 -29.35 -10.05 -43.97 -128.33 29.35zm-2.26 -0.24l132.52 -30.3 10.38 45.4 -132.51 30.31 -10.39 -45.41z"/>
     <path id="47" class="fil48" d="M218 68.63l10.28 44.93 131.12 -29.99 -10.28 -44.93 -131.12 29.99zm-2.25 -0.24l135.3 -30.94 10.61 46.36 -135.31 30.94 -10.6 -46.36z"/>
     <path id="48" class="fil49" d="M216.5 68.47l10.49 45.88 133.91 -30.62 -10.49 -45.88 -133.91 30.62zm-2.26 -0.24l138.1 -31.58 10.82 47.32 -138.1 31.58 -10.82 -47.32z"/>
     <path id="49" class="fil50" d="M214.99 68.31l10.72 46.84 136.7 -31.26 -10.71 -46.84 -136.71 31.26zm-2.25 -0.23l140.88 -32.23 11.04 48.27 -140.88 32.23 -11.04 -48.27z"/>
     <path id="50" class="fil51" d="M213.49 68.16l10.93 47.79 139.49 -31.9 -10.93 -47.8 -139.49 31.91zm-2.26 -0.24l143.68 -32.86 11.26 49.22 -143.68 32.86 -11.26 -49.22z"/>
     <path id="51" class="fil52" d="M211.99 68l11.15 48.74 142.28 -32.53 -11.15 -48.75 -142.28 32.54zm-2.26 -0.24l146.46 -33.5 11.48 50.18 -146.46 33.5 -11.48 -50.18z"/>
     <path id="52" class="fil53" d="M210.48 67.84l11.37 49.7 145.07 -33.18 -11.37 -49.7 -145.07 33.18zm-2.25 -0.24l149.25 -34.14 11.7 51.14 -149.26 34.14 -11.69 -51.14z"/>
     <path id="53" class="fil54" d="M208.98 67.68l11.58 50.66 147.86 -33.82 -11.58 -50.66 -147.86 33.82zm-2.26 -0.24l152.05 -34.77 11.91 52.09 -152.04 34.77 -11.92 -52.09z"/>
     <path id="54" class="fil55" d="M207.47 67.52l11.81 51.62 150.65 -34.46 -11.81 -51.62 -150.65 34.46zm-2.25 -0.24l154.83 -35.41 12.13 53.05 -154.83 35.41 -12.13 -53.05z"/>
     <path id="55" class="fil56" d="M205.97 67.36l12.02 52.57 153.44 -35.09 -12.02 -52.57 -153.44 35.09zm-2.26 -0.24l157.63 -36.05 12.35 54.01 -157.63 36.05 -12.35 -54.01z"/>
     <path id="56" class="fil57" d="M204.47 67.2l12.24 53.53 156.23 -35.73 -12.25 -53.53 -156.22 35.73zm-2.26 -0.24l160.41 -36.69 12.57 54.97 -160.41 36.69 -12.57 -54.97z"/>
     <path id="57" class="fil58" d="M202.96 67.04l12.46 54.49 159.02 -36.37 -12.46 -54.49 -159.02 36.37zm-2.25 -0.24l163.2 -37.32 12.79 55.92 -163.21 37.32 -12.78 -55.92z"/>
     <path id="58" class="fil59" d="M201.46 66.88l12.68 55.44 161.81 -37 -12.68 -55.44 -161.81 37zm-2.26 -0.23l165.99 -37.97 13.01 56.87 -165.99 37.97 -13.01 -56.87z"/>
     <path id="59" class="fil60" d="M199.95 66.72l12.9 56.4 164.6 -37.64 -12.9 -56.4 -164.6 37.64zm-2.25 -0.23l168.78 -38.61 13.23 57.83 -168.79 38.61 -13.22 -57.83z"/>
     <path id="60" class="fil61" d="M198.45 66.57l13.12 57.35 167.38 -38.29 -13.11 -57.35 -167.39 38.29zm-2.26 -0.24l171.58 -39.24 13.44 58.78 -171.57 39.24 -13.45 -58.78z"/>
     <path id="61" class="fil62" d="M196.94 66.41l13.34 58.3 170.18 -38.92 -13.34 -58.3 -170.18 38.92zm-2.25 -0.24l174.36 -39.88 13.66 59.74 -174.36 39.88 -13.66 -59.74z"/>
     <path id="62" class="fil63" d="M195.44 66.25l13.55 59.26 172.97 -39.56 -13.55 -59.26 -172.97 39.56zm-2.26 -0.24l177.16 -40.52 13.88 60.7 -177.15 40.52 -13.89 -60.7z"/>
     <path id="63" class="fil64" d="M193.94 66.09l13.77 60.22 175.76 -40.2 -13.78 -60.22 -175.75 40.2zm-2.26 -0.24l179.94 -41.15 14.1 61.65 -179.94 41.15 -14.1 -61.65z"/>
     <path id="64" class="fil65" d="M192.43 65.93l13.99 61.18 178.55 -40.84 -13.99 -61.17 -178.55 40.83zm-2.25 -0.24l182.73 -41.79 14.32 62.61 -182.74 41.79 -14.31 -62.61z"/>
     <path id="65" class="fil66" d="M190.93 65.77l14.21 62.13 181.33 -41.47 -14.21 -62.13 -181.33 41.47zm-2.26 -0.24l185.52 -42.43 14.54 63.57 -185.52 42.43 -14.54 -63.57z"/>
     <path id="66" class="fil67" d="M189.42 65.61l14.43 63.09 184.13 -42.11 -14.43 -63.09 -184.13 42.11zm-2.25 -0.24l188.31 -43.06 14.75 64.52 -188.31 43.07 -14.75 -64.53z"/>
     <path id="67" class="fil68" d="M187.92 65.45l14.65 64.05 186.91 -42.75 -14.64 -64.05 -186.92 42.75zm-2.26 -0.23l191.1 -43.71 14.98 65.48 -191.1 43.7 -14.98 -65.47z"/>
     <path id="68" class="fil69" d="M186.42 65.29l14.86 65 189.71 -43.38 -14.87 -65 -189.7 43.38zm-2.26 -0.23l193.89 -44.35 15.19 66.43 -193.89 44.35 -15.19 -66.43z"/>
     <path id="69" class="fil70" d="M184.91 65.14l15.08 65.95 192.5 -44.03 -15.08 -65.95 -192.5 44.03zm-2.25 -0.24l196.68 -44.98 15.41 67.38 -196.68 44.99 -15.41 -67.39z"/>
     <path id="70" class="fil71" d="M183.41 64.98l15.3 66.91 195.29 -44.67 -15.31 -66.91 -195.28 44.67zm-2.26 -0.24l199.47 -45.62 15.63 68.34 -199.47 45.62 -15.63 -68.34z"/>
     <path id="71" class="fil72" d="M181.9 64.82l15.52 67.86 198.08 -45.3 -15.52 -67.86 -198.08 45.3zm-2.25 -0.24l202.26 -46.26 15.85 69.3 -202.26 46.26 -15.85 -69.3z"/>
     <path id="72" class="fil73" d="M180.4 64.66l15.74 68.82 200.86 -45.94 -15.74 -68.82 -200.86 45.94zm-2.26 -0.24l205.05 -46.9 16.07 70.26 -205.05 46.9 -16.07 -70.26z"/>
     <path id="73" class="fil74" d="M178.89 64.5l15.96 69.78 203.66 -46.58 -15.96 -69.78 -203.66 46.58zm-2.25 -0.24l207.84 -47.53 16.28 71.21 -207.84 47.53 -16.28 -71.21z"/>
     <path id="74" class="fil75" d="M177.39 64.34l16.18 70.73 206.44 -47.21 -16.18 -70.73 -206.44 47.21zm-2.26 -0.24l210.63 -48.17 16.51 72.17 -210.63 48.17 -16.51 -72.17z"/>
     <path id="75" class="fil76" d="M175.89 64.18l16.39 71.69 209.24 -47.85 -16.4 -71.69 -209.23 47.85zm-2.26 -0.24l213.42 -48.81 16.72 73.13 -213.42 48.81 -16.72 -73.13z"/>
     <path id="76" class="fil77" d="M174.38 64.02l16.62 72.65 212.02 -48.49 -16.61 -72.65 -212.03 48.49zm-2.25 -0.24l216.2 -49.44 16.95 74.08 -216.21 49.44 -16.94 -74.08z"/>
     <path id="77" class="fil78" d="M172.88 63.86l16.83 73.61 214.81 -49.13 -16.83 -73.61 -214.81 49.13zm-2.26 -0.23l219 -50.09 17.16 75.03 -219 50.09 -17.16 -75.03z"/>
     <path id="78" class="fil79" d="M171.37 63.71l17.05 74.55 217.61 -49.77 -17.05 -74.55 -217.61 49.77zm-2.25 -0.24l221.79 -50.73 17.37 75.99 -221.78 50.73 -17.38 -75.99z"/>
     <path id="79" class="fil80" d="M169.87 63.55l17.27 75.51 220.39 -50.41 -17.27 -75.51 -220.39 50.41zm-2.26 -0.24l224.58 -51.36 17.6 76.94 -224.58 51.36 -17.6 -76.94z"/>
     <path id="80" class="fil81" d="M168.37 63.39l17.48 76.47 223.19 -51.05 -17.49 -76.47 -223.18 51.05zm-2.26 -0.24l227.37 -52 17.81 77.9 -227.36 52 -17.82 -77.9z"/>
     <path id="81" class="fil82" d="M166.86 63.23l17.71 77.42 225.97 -51.68 -17.71 -77.42 -225.97 51.68zm-2.26 -0.24l230.16 -52.64 18.04 78.86 -230.16 52.64 -18.04 -78.86z"/>
     <path id="82" class="fil83" d="M165.36 63.07l17.92 78.38 228.77 -52.32 -17.93 -78.38 -228.76 52.32zm-2.26 -0.24l232.95 -53.28 18.25 79.82 -232.95 53.28 -18.25 -79.82z"/>
     <path id="83" class="fil84" d="M163.85 62.91l18.15 79.34 231.55 -52.96 -18.14 -79.34 -231.56 52.96zm-2.25 -0.24l235.73 -53.91 18.48 80.77 -235.74 53.91 -18.47 -80.77z"/>
     <path id="84" class="fil85" d="M162.35 62.75l18.36 80.29 234.34 -53.59 -18.36 -80.29 -234.34 53.59zm-2.26 -0.24l238.53 -54.55 18.69 81.73 -238.53 54.55 -18.69 -81.73z"/>
     <path id="85" class="fil86" d="M160.84 62.59l18.59 81.25 237.13 -54.23 -18.58 -81.25 -237.14 54.23zm-2.25 -0.24l241.31 -55.19 18.91 82.69 -241.31 55.19 -18.91 -82.69z"/>
     <path id="86" class="fil87" d="M159.34 62.43l18.8 82.21 239.92 -54.87 -18.8 -82.21 -239.92 54.87zm-2.26 -0.23l244.11 -55.83 19.13 83.63 -244.11 55.83 -19.13 -83.63z"/>
     <path id="87" class="fil88" d="M157.84 62.28l19.01 83.16 242.72 -55.52 -19.02 -83.16 -242.71 55.52zm-2.26 -0.24l246.9 -56.47 19.34 84.59 -246.89 56.47 -19.35 -84.59z"/>
     <path id="88" class="fil89" d="M156.33 62.12l19.24 84.11 245.5 -56.15 -19.24 -84.11 -245.5 56.15zm-2.25 -0.24l249.68 -57.11 19.57 85.55 -249.69 57.11 -19.56 -85.55z"/>
     <path id="89" class="fil90" d="M154.83 61.96l19.45 85.07 248.29 -56.79 -19.45 -85.07 -248.29 56.79zm-2.26 -0.24l252.48 -57.74 19.78 86.5 -252.48 57.74 -19.78 -86.5z"/>
     <path id="90" class="fil91" d="M153.32 61.8l19.68 86.03 251.08 -57.43 -19.68 -86.03 -251.08 57.43zm-2.25 -0.24l255.26 -58.38 20 87.46 -255.26 58.38 -20 -87.46z"/>
     <path id="91" class="fil92" d="M151.82 61.64l19.89 86.98 253.87 -58.06 -19.89 -86.98 -253.87 58.06zm-2.26 -0.24l258.06 -59.02 20.22 88.42 -258.06 59.02 -20.22 -88.42z"/>
     <path id="92" class="fil93" d="M150.31 61.48l20.12 87.94 256.66 -58.7 -20.11 -87.94 -256.67 58.7zm-2.25 -0.24l260.84 -59.65 20.44 89.37 -260.84 59.66 -20.44 -89.38z"/>
     <path id="93" class="fil94" d="M148.81 61.32l20.33 88.9 259.45 -59.34 -20.33 -88.9 -259.45 59.34zm-2.26 -0.24l263.64 -60.29 20.66 90.33 -263.64 60.29 -20.66 -90.33z"/>
     <path id="94" class="fil95" d="M147.31 61.16l20.55 89.85 262.24 -59.97 -20.55 -89.85 -262.24 59.97zm-2.26 -0.24l266.43 -60.93 20.87 91.29 -266.42 60.93 -20.88 -91.29z"/>
     <path id="95" class="fil96" d="M145.8 61l20.77 90.81 265.03 -60.61 -20.77 -90.81 -265.03 60.61zm-2.25 -0.23l269.21 -61.58 21.1 92.24 -269.22 61.58 -21.09 -92.24z"/>
     <path id="96" class="fil97" d="M144.3 60.85l20.98 91.76 267.82 -61.25 -20.98 -91.77 -267.82 61.26zm-2.26 -0.24l272.01 -62.21 21.31 93.19 -272 62.21 -21.32 -93.19z"/>
     <path id="97" class="fil98" d="M142.79 60.69l21.21 92.72 270.61 -61.9 -21.21 -92.71 -270.61 61.89zm-2.25 -0.24l274.79 -62.85 21.53 94.15 -274.79 62.85 -21.53 -94.15z"/>
     <path id="98" class="fil99" d="M141.29 60.53l21.42 93.67 273.4 -62.53 -21.42 -93.67 -273.4 62.53zm-2.26 -0.24l277.59 -63.49 21.75 95.11 -277.59 63.49 -21.75 -95.11z"/>
     <path id="99" class="fil100" d="M139.79 60.37l21.64 94.63 276.19 -63.17 -21.65 -94.63 -276.18 63.17zm-2.26 -0.24l280.37 -64.12 21.97 96.06 -280.37 64.12 -21.97 -96.06z"/>
     <path id="100" class="fil101" d="M138.28 60.21l21.86 95.59 278.98 -63.81 -21.86 -95.58 -278.98 63.8zm-2.26 -0.24l283.17 -64.76 22.19 97.02 -283.17 64.76 -22.19 -97.02z"/>
     <path id="101" class="fil102" d="M136.78 60.05l22.08 96.54 281.77 -64.44 -22.08 -96.54 -281.77 64.44zm-2.26 -0.24l285.95 -65.4 22.41 97.98 -285.95 65.4 -22.41 -97.98z"/>
     <path id="102" class="fil103" d="M135.27 59.89l22.3 97.5 284.56 -65.08 -22.3 -97.5 -284.56 65.08zm-2.25 -0.24l288.74 -66.03 22.63 98.93 -288.75 66.03 -22.62 -98.93z"/>
     <path id="103" class="fil104" d="M133.77 59.73l22.52 98.46 287.34 -65.72 -22.51 -98.46 -287.35 65.72zm-2.26 -0.24l291.54 -66.67 22.84 99.89 -291.53 66.67 -22.85 -99.89z"/>
     <path id="104" class="fil105" d="M132.26 59.57l22.74 99.41 290.14 -66.35 -22.74 -99.41 -290.14 66.35zm-2.25 -0.23l294.32 -67.32 23.06 100.84 -294.32 67.32 -23.06 -100.84z"/>
     <path id="105" class="fil106" d="M130.76 59.41l22.95 100.37 292.93 -66.99 -22.95 -100.37 -292.93 66.99zm-2.26 -0.23l297.12 -67.96 23.28 101.8 -297.11 67.96 -23.29 -101.8z"/>
     <path id="106" class="fil107" d="M129.26 59.26l23.17 101.32 295.72 -67.64 -23.18 -101.32 -295.71 67.64zm-2.26 -0.24l299.9 -68.59 23.5 102.75 -299.9 68.59 -23.5 -102.75z"/>
     <path id="107" class="fil108" d="M127.75 59.1l23.39 102.27 298.51 -68.27 -23.39 -102.27 -298.51 68.27zm-2.25 -0.24l302.69 -69.23 23.72 103.71 -302.7 69.23 -23.71 -103.71z"/>
     <path id="108" class="fil109" d="M126.25 58.94l23.61 103.23 301.29 -68.91 -23.61 -103.23 -301.29 68.91zm-2.26 -0.24l305.48 -69.87 23.94 104.67 -305.48 69.87 -23.94 -104.67z"/>
     <path id="109" class="fil110" d="M124.74 58.78l23.83 104.19 304.09 -69.55 -23.83 -104.19 -304.09 69.55zm-2.25 -0.24l308.27 -70.5 24.16 105.62 -308.28 70.5 -24.15 -105.62z"/>
     <path id="110" class="fil111" d="M123.24 58.62l24.05 105.15 306.87 -70.19 -24.04 -105.15 -306.88 70.19zm-2.26 -0.24l311.06 -71.14 24.38 106.58 -311.06 71.14 -24.38 -106.58z"/>
     <path id="111" class="fil112" d="M121.73 58.46l24.27 106.1 309.67 -70.82 -24.27 -106.1 -309.67 70.82zm-2.25 -0.24l313.85 -71.78 24.59 107.54 -313.85 71.78 -24.59 -107.54z"/>
     <path id="112" class="fil113" d="M120.23 58.3l24.48 107.06 312.46 -71.46 -24.48 -107.06 -312.46 71.46zm-2.26 -0.24l316.65 -72.41 24.81 108.49 -316.64 72.41 -24.82 -108.49z"/>
     <path id="113" class="fil114" d="M118.73 58.14l24.7 108.02 315.25 -72.1 -24.71 -108.02 -315.24 72.1zm-2.26 -0.23l319.43 -73.06 25.03 109.45 -319.43 73.05 -25.03 -109.44z"/>
     <path id="114" class="fil115" d="M117.22 57.98l24.92 108.97 318.04 -72.73 -24.92 -108.97 -318.04 72.73zm-2.25 -0.23l322.22 -73.7 25.25 110.4 -322.22 73.7 -25.25 -110.4z"/>
     <path id="115" class="fil116" d="M115.72 57.83l25.14 109.92 320.82 -73.38 -25.14 -109.92 -320.82 73.38zm-2.26 -0.24l325.01 -74.34 25.47 111.36 -325.01 74.34 -25.47 -111.36z"/>
     <path id="116" class="fil117" d="M114.21 57.67l25.36 110.88 323.62 -74.02 -25.36 -110.88 -323.62 74.02zm-2.25 -0.24l327.8 -74.97 25.68 112.31 -327.8 74.97 -25.68 -112.31z"/>
     <path id="117" class="fil118" d="M112.71 57.51l25.58 111.83 326.4 -74.65 -25.57 -111.83 -326.41 74.65zm-2.26 -0.24l330.59 -75.61 25.91 113.27 -330.59 75.61 -25.91 -113.27z"/>
     <path id="118" class="fil119" d="M111.2 57.35l25.8 112.79 329.2 -75.29 -25.8 -112.79 -329.2 75.29zm-2.25 -0.24l333.38 -76.25 26.12 114.23 -333.38 76.25 -26.12 -114.23z"/>
     <path id="119" class="fil120" d="M109.7 57.19l26.02 113.75 331.98 -75.93 -26.01 -113.75 -331.99 75.93zm-2.26 -0.24l336.17 -76.88 26.35 115.18 -336.17 76.88 -26.35 -115.18z"/>
     <path id="120" class="fil121" d="M108.2 57.03l26.23 114.71 334.78 -76.57 -26.24 -114.7 -334.77 76.56zm-2.26 -0.24l338.96 -77.52 26.56 116.14 -338.96 77.52 -26.56 -116.14z"/>
     <path id="121" class="fil122" d="M106.69 56.87l26.45 115.66 337.57 -77.2 -26.45 -115.66 -337.57 77.2zm-2.25 -0.24l341.75 -78.16 26.78 117.1 -341.75 78.16 -26.78 -117.1z"/>
     <path id="122" class="fil123" d="M105.19 56.71l26.67 116.62 340.35 -77.84 -26.67 -116.62 -340.35 77.84zm-2.26 -0.23l344.54 -78.8 27 118.05 -344.54 78.79 -27 -118.04z"/>
     <path id="123" class="fil124" d="M103.68 56.55l26.89 117.58 343.15 -78.48 -26.89 -117.57 -343.15 78.47zm-2.25 -0.23l347.33 -79.44 27.21 119 -347.33 79.44 -27.21 -119z"/>
     <path id="124" class="fil125" d="M102.18 56.4l27.11 118.52 345.93 -79.12 -27.11 -118.52 -345.93 79.12zm-2.26 -0.24l350.12 -80.08 27.44 119.96 -350.12 80.08 -27.44 -119.96z"/>
     <path id="125" class="fil126" d="M100.68 56.24l27.32 119.48 348.73 -79.76 -27.33 -119.48 -348.72 79.76zm-2.26 -0.24l352.91 -80.71 27.65 120.91 -352.91 80.71 -27.65 -120.91z"/>
     <path id="126" class="fil127" d="M99.17 56.08l27.55 120.44 351.51 -80.4 -27.54 -120.44 -351.52 80.4zm-2.26 -0.24l355.7 -81.35 27.88 121.87 -355.7 81.35 -27.88 -121.87z"/>
     <path id="127" class="fil128" d="M97.67 55.92l27.76 121.39 354.3 -81.03 -27.76 -121.39 -354.3 81.03zm-2.26 -0.24l358.49 -81.99 28.09 122.83 -358.49 81.99 -28.09 -122.83z"/>
     <path id="128" class="fil129" d="M96.16 55.76l27.99 122.35 357.09 -81.67 -27.98 -122.35 -357.1 81.67zm-2.25 -0.24l361.28 -82.63 28.31 123.79 -361.28 82.63 -28.31 -123.79z"/>
     <path id="129" class="fil130" d="M94.66 55.6l28.2 123.31 359.88 -82.31 -28.2 -123.31 -359.88 82.31zm-2.26 -0.24l364.07 -83.26 28.53 124.74 -364.07 83.26 -28.53 -124.74z"/>
     <path id="130" class="fil131" d="M93.15 55.44l28.42 124.26 362.68 -82.94 -28.42 -124.26 -362.68 82.94zm-2.25 -0.24l366.86 -83.9 28.74 125.7 -366.85 83.9 -28.75 -125.7z"/>
     <path id="131" class="fil132" d="M91.65 55.28l28.64 125.22 365.46 -83.58 -28.64 -125.22 -365.46 83.58zm-2.26 -0.24l369.65 -84.54 28.97 126.66 -369.65 84.54 -28.97 -126.66z"/>
     <path id="132" class="fil133" d="M90.15 55.12l28.85 126.18 368.26 -84.22 -28.86 -126.18 -368.25 84.22zm-2.26 -0.23l372.44 -85.18 29.18 127.6 -372.44 85.18 -29.18 -127.6z"/>
     <path id="133" class="fil134" d="M88.64 54.97l29.08 127.12 371.04 -84.86 -29.08 -127.12 -371.04 84.86zm-2.25 -0.24l375.22 -85.82 29.41 128.56 -375.23 85.82 -29.4 -128.56z"/>
     <path id="134" class="fil135" d="M87.14 54.81l29.29 128.08 373.83 -85.5 -29.29 -128.08 -373.83 85.5zm-2.26 -0.24l378.02 -86.46 29.62 129.52 -378.02 86.46 -29.62 -129.52z"/>
     <path id="135" class="fil136" d="M85.63 54.65l29.52 129.04 376.62 -86.14 -29.51 -129.04 -376.63 86.14zm-2.25 -0.24l380.8 -87.09 29.84 130.47 -380.8 87.09 -29.84 -130.47z"/>
     <path id="136" class="fil137" d="M84.13 54.49l29.73 130 379.41 -86.78 -29.73 -130 -379.41 86.78zm-2.26 -0.24l383.6 -87.73 30.06 131.43 -383.6 87.73 -30.06 -131.43z"/>
     <path id="137" class="fil138" d="M82.62 54.33l29.96 130.95 382.2 -87.41 -29.95 -130.95 -382.21 87.41zm-2.25 -0.24l386.39 -88.37 30.27 132.39 -386.38 88.37 -30.28 -132.39z"/>
     <path id="138" class="fil139" d="M81.12 54.17l30.17 131.91 384.99 -88.05 -30.17 -131.91 -384.99 88.05zm-2.26 -0.24l389.18 -89.01 30.5 133.35 -389.18 89.01 -30.5 -133.35z"/>
     <path id="139" class="fil140" d="M79.62 54.01l30.38 132.87 387.79 -88.69 -30.39 -132.87 -387.78 88.69zm-2.26 -0.24l391.97 -89.64 30.71 134.3 -391.96 89.64 -30.72 -134.3z"/>
     <path id="140" class="fil141" d="M78.11 53.85l30.61 133.82 390.57 -89.32 -30.61 -133.82 -390.57 89.32zm-2.25 -0.24l394.75 -90.28 30.94 135.26 -394.76 90.28 -30.93 -135.26z"/>
     <path id="141" class="fil142" d="M76.61 53.69l30.82 134.78 393.36 -89.96 -30.82 -134.78 -393.36 89.96zm-2.26 -0.23l397.55 -90.93 31.15 136.21 -397.55 90.93 -31.15 -136.21z"/>
     <path id="142" class="fil143" d="M75.1 53.54l31.05 135.73 396.15 -90.6 -31.05 -135.74 -396.15 90.61zm-2.25 -0.24l400.33 -91.56 31.37 137.16 -400.33 91.56 -31.37 -137.16z"/>
     <path id="143" class="fil144" d="M73.6 53.38l31.26 136.68 398.94 -91.24 -31.26 -136.68 -398.94 91.24zm-2.26 -0.24l403.13 -92.2 31.59 138.12 -403.13 92.2 -31.59 -138.12z"/>
     <path id="144" class="fil145" d="M72.1 53.22l31.48 137.64 401.73 -91.88 -31.48 -137.64 -401.73 91.88zm-2.26 -0.24l405.91 -92.84 31.81 139.08 -405.91 92.84 -31.81 -139.08z"/>
     <path id="145" class="fil146" d="M70.59 53.06l31.7 138.6 404.52 -92.52 -31.7 -138.6 -404.52 92.52zm-2.26 -0.24l408.71 -93.47 32.03 140.03 -408.71 93.47 -32.03 -140.03z"/>
     <path id="146" class="fil147" d="M69.09 52.9l31.91 139.56 407.31 -93.16 -31.91 -139.55 -407.31 93.15zm-2.26 -0.24l411.5 -94.11 32.24 140.99 -411.49 94.11 -32.25 -140.99z"/>
     <path id="147" class="fil148" d="M67.58 52.74l32.14 140.51 410.1 -93.79 -32.14 -140.51 -410.1 93.79zm-2.25 -0.24l414.28 -94.75 32.47 141.95 -414.29 94.75 -32.46 -141.95z"/>
     <path id="148" class="fil149" d="M66.08 52.58l32.35 141.47 412.89 -94.43 -32.35 -141.47 -412.89 94.43zm-2.26 -0.24l417.08 -95.38 32.68 142.9 -417.07 95.39 -32.69 -142.91z"/>
     <path id="149" class="fil150" d="M64.57 52.42l32.58 142.43 415.68 -95.07 -32.58 -142.43 -415.68 95.07zm-2.25 -0.24l419.86 -96.02 32.9 143.86 -419.86 96.02 -32.9 -143.86z"/>
     <path id="150" class="fil151" d="M63.07 52.26l32.79 143.38 418.47 -95.7 -32.79 -143.38 -418.47 95.7zm-2.26 -0.23l422.66 -96.67 33.12 144.81 -422.66 96.67 -33.12 -144.81z"/>
     <path id="151" class="fil152" d="M61.57 52.11l33.01 144.33 421.26 -96.34 -33.01 -144.34 -421.26 96.35zm-2.26 -0.24l425.44 -97.3 33.34 145.76 -425.44 97.31 -33.34 -145.77z"/>
     <path id="152" class="fil153" d="M60.06 51.95l33.23 145.29 424.05 -96.99 -33.23 -145.29 -424.05 96.99zm-2.25 -0.24l428.23 -97.94 33.56 146.72 -428.24 97.94 -33.55 -146.72z"/>
     <path id="153" class="fil154" d="M58.56 51.79l33.45 146.24 426.83 -97.62 -33.44 -146.24 -426.84 97.62zm-2.26 -0.24l431.02 -98.58 33.78 147.68 -431.02 98.58 -33.78 -147.68z"/>
     <path id="154" class="fil155" d="M57.05 51.63l33.67 147.2 429.63 -98.26 -33.67 -147.2 -429.63 98.26zm-2.25 -0.24l433.81 -99.22 33.99 148.64 -433.81 99.22 -33.99 -148.64z"/>
     <path id="155" class="fil156" d="M55.55 51.47l33.88 148.16 432.42 -98.9 -33.88 -148.16 -432.42 98.9zm-2.26 -0.24l436.61 -99.85 34.21 149.59 -436.6 99.85 -34.22 -149.59z"/>
     <path id="156" class="fil157" d="M54.04 51.31l34.11 149.11 435.21 -99.53 -34.11 -149.11 -435.21 99.53zm-2.25 -0.24l439.39 -100.49 34.43 150.55 -439.39 100.49 -34.43 -150.55z"/>
     <path id="157" class="fil158" d="M52.54 51.15l34.32 150.07 438 -100.17 -34.32 -150.07 -438 100.17zm-2.26 -0.24l442.19 -101.13 34.65 151.51 -442.19 101.13 -34.65 -151.51z"/>
     <path id="158" class="fil159" d="M51.04 50.99l34.54 151.03 440.79 -100.81 -34.55 -151.03 -440.78 100.81zm-2.26 -0.23l444.97 -101.77 34.87 152.46 -444.97 101.76 -34.87 -152.45z"/>
     <path id="159" class="fil160" d="M49.53 50.83l34.76 151.99 443.58 -101.45 -34.76 -151.99 -443.58 101.45zm-2.25 -0.23l447.76 -102.41 35.09 153.41 -447.77 102.41 -35.08 -153.41z"/>
     <path id="160" class="fil161" d="M48.03 50.67l34.98 152.94 446.36 -102.08 -34.97 -152.94 -446.37 102.08zm-2.26 -0.23l450.55 -103.05 35.31 154.37 -450.55 103.05 -35.31 -154.37z"/>
     <path id="161" class="fil162" d="M46.52 50.52l35.2 153.89 449.16 -102.73 -35.2 -153.89 -449.16 102.73zm-2.25 -0.24l453.34 -103.69 35.52 155.33 -453.34 103.69 -35.52 -155.33z"/>
     <path id="162" class="fil163" d="M45.02 50.36l35.42 154.85 451.94 -103.37 -35.41 -154.85 -451.95 103.37zm-2.26 -0.24l456.14 -104.32 35.74 156.28 -456.13 104.32 -35.75 -156.28z"/>
     <path id="163" class="fil164" d="M43.52 50.2l35.63 155.8 454.74 -104 -35.64 -155.8 -454.73 104zm-2.26 -0.24l458.92 -104.96 35.96 157.24 -458.92 104.96 -35.96 -157.24z"/>
     <path id="164" class="fil165" d="M42.01 50.04l35.85 156.76 457.53 -104.64 -35.85 -156.76 -457.53 104.64zm-2.26 -0.24l461.72 -105.6 36.18 158.2 -461.71 105.6 -36.19 -158.2z"/>
     <path id="165" class="fil166" d="M40.51 49.88l36.07 157.72 460.31 -105.28 -36.07 -157.72 -460.31 105.28zm-2.26 -0.24l464.5 -106.23 36.4 159.15 -464.5 106.23 -36.4 -159.15z"/>
     <path id="166" class="fil167" d="M39 49.72l36.29 158.67 463.11 -105.91 -36.29 -158.67 -463.11 105.91zm-2.25 -0.24l467.29 -106.87 36.62 160.11 -467.3 106.87 -36.61 -160.11z"/>
     <path id="167" class="fil168" d="M37.5 49.56l36.51 159.63 465.89 -106.55 -36.51 -159.63 -465.89 106.55zm-2.26 -0.24l470.08 -107.51 36.84 161.07 -470.08 107.51 -36.84 -161.07z"/>
     <path id="168" class="fil169" d="M35.99 49.4l36.73 160.59 468.69 -107.19 -36.73 -160.59 -468.69 107.19zm-2.25 -0.23l472.87 -108.15 37.05 162.02 -472.87 108.14 -37.05 -162.01z"/>
     <path id="169" class="fil170" d="M34.49 49.24l36.95 161.55 471.47 -107.83 -36.94 -161.55 -471.48 107.83zm-2.26 -0.23l475.66 -108.79 37.28 162.97 -475.66 108.79 -37.28 -162.97z"/>
     <path id="170" class="fil171" d="M32.99 49.09l37.16 162.49 474.27 -108.47 -37.17 -162.49 -474.26 108.47zm-2.26 -0.24l478.45 -109.43 37.49 163.93 -478.45 109.43 -37.49 -163.93z"/>
     <path id="171" class="fil172" d="M31.48 48.93l37.39 163.45 477.05 -109.11 -37.38 -163.45 -477.06 109.11zm-2.25 -0.24l481.24 -110.06 37.71 164.88 -481.24 110.07 -37.71 -164.89z"/>
     <path id="172" class="fil173" d="M29.98 48.77l37.6 164.41 479.84 -109.75 -37.6 -164.41 -479.84 109.75zm-2.26 -0.24l484.03 -110.7 37.93 165.84 -484.03 110.7 -37.93 -165.84z"/>
     <path id="173" class="fil174" d="M28.47 48.61l37.82 165.36 482.64 -110.38 -37.82 -165.36 -482.64 110.38zm-2.25 -0.24l486.82 -111.34 38.14 166.8 -486.81 111.34 -38.15 -166.8z"/>
     <path id="174" class="fil175" d="M26.97 48.45l38.04 166.32 485.42 -111.02 -38.04 -166.32 -485.42 111.02zm-2.26 -0.24l489.61 -111.97 38.37 167.75 -489.61 111.98 -38.37 -167.76z"/>
     <path id="175" class="fil176" d="M25.47 48.29l38.25 167.28 488.22 -111.66 -38.26 -167.28 -488.21 111.66zm-2.26 -0.24l492.4 -112.61 38.58 168.71 -492.4 112.61 -38.58 -168.71z"/>
     <path id="176" class="fil177" d="M23.96 48.13l38.48 168.23 491 -112.29 -38.48 -168.23 -491 112.29zm-2.26 -0.24l495.19 -113.25 38.81 169.67 -495.19 113.25 -38.81 -169.67z"/>
     <path id="177" class="fil178" d="M22.46 47.97l38.69 169.19 493.8 -112.93 -38.7 -169.19 -493.79 112.93zm-2.26 -0.23l497.98 -113.9 39.02 170.63 -497.98 113.89 -39.02 -170.62z"/>
     <path id="178" class="fil179" d="M20.95 47.82l38.92 170.14 496.58 -113.57 -38.91 -170.15 -496.59 113.58zm-2.25 -0.24l500.76 -114.53 39.25 171.57 -500.77 114.53 -39.24 -171.57z"/>
     <path id="179" class="fil180" d="M19.45 47.66l39.13 171.1 499.37 -114.22 -39.13 -171.09 -499.37 114.21zm-2.26 -0.24l503.56 -115.17 39.46 172.53 -503.56 115.17 -39.46 -172.53z"/>
     <path id="180" class="fil181" d="M17.94 47.5l39.35 172.05 502.17 -114.85 -39.35 -172.05 -502.17 114.85zm-2.25 -0.24l506.35 -115.81 39.67 173.49 -506.34 115.81 -39.68 -173.49z"/>
     <path id="181" class="fil182" d="M16.44 47.34l39.57 173.01 504.95 -115.49 -39.57 -173.01 -504.95 115.49zm-2.26 -0.24l509.14 -116.44 39.9 174.44 -509.14 116.44 -39.9 -174.44z"/>
     <path id="182" class="fil183" d="M14.94 47.18l39.78 173.97 507.75 -116.13 -39.79 -173.97 -507.74 116.13zm-2.26 -0.24l511.93 -117.08 40.11 175.4 -511.92 117.08 -40.12 -175.4z"/>
     <path id="183" class="fil184" d="M13.43 47.02l40.01 174.92 510.53 -116.76 -40.01 -174.92 -510.53 116.76zm-2.25 -0.24l514.71 -117.72 40.34 176.36 -514.72 117.72 -40.33 -176.36z"/>
     <path id="184" class="fil185" d="M11.93 46.86l40.22 175.88 513.32 -117.4 -40.22 -175.88 -513.32 117.4zm-2.26 -0.24l517.51 -118.35 40.55 177.31 -517.51 118.35 -40.55 -177.31z"/>
     <path id="185" class="fil186" d="M10.42 46.7l40.45 176.84 516.11 -118.04 -40.44 -176.84 -516.12 118.04zm-2.25 -0.24l520.29 -118.99 40.77 178.27 -520.29 118.99 -40.77 -178.27z"/>
     <path id="186" class="fil187" d="M8.92 46.54l40.66 177.79 518.9 -118.67 -40.66 -177.79 -518.9 118.67zm-2.26 -0.24l523.09 -119.63 40.99 179.23 -523.09 119.63 -40.99 -179.23z"/>
     <path id="187" class="fil188" d="M7.42 46.39l40.88 178.74 521.69 -119.31 -40.88 -178.75 -521.69 119.32zm-2.26 -0.24l525.87 -120.28 41.21 180.18 -525.87 120.28 -41.21 -180.18z"/>
     <path id="188" class="fil189" d="M5.91 46.23l41.1 179.7 524.48 -119.96 -41.1 -179.7 -524.48 119.96zm-2.26 -0.24l528.67 -120.91 41.43 181.13 -528.67 120.91 -41.43 -181.13z"/>
     <path id="189" class="fil190" d="M4.41 46.07l41.31 180.65 527.28 -120.59 -41.32 -180.65 -527.27 120.59zm-2.26 -0.24l531.46 -121.55 41.64 182.09 -531.45 121.55 -41.65 -182.09z"/>
     <path id="190" class="fil191" d="M2.9 45.91l41.54 181.61 530.06 -121.23 -41.54 -181.61 -530.06 121.23zm-2.25 -0.24l534.24 -122.19 41.87 183.05 -534.25 122.19 -41.86 -183.05z"/>
     <path id="191" class="fil192" d="M1.4 45.75l41.75 182.57 532.85 -121.87 -41.75 -182.57 -532.85 121.87zm-2.26 -0.24l537.04 -122.82 42.08 184 -537.04 122.82 -42.08 -184z"/>
     <path id="192" class="fil193" d="M-0.11 45.59l41.98 183.53 535.64 -122.51 -41.98 -183.53 -535.64 122.51zm-2.25 -0.24l539.82 -123.46 42.3 184.96 -539.82 123.46 -42.3 -184.96z"/>
     <path id="193" class="fil194" d="M-1.61 45.43l42.19 184.48 538.43 -123.14 -42.19 -184.48 -538.43 123.14zm-2.26 -0.24l542.62 -124.1 42.52 185.92 -542.62 124.1 -42.52 -185.92z"/>
     <path id="194" class="fil195" d="M-3.11 45.27l42.41 185.44 541.22 -123.78 -42.41 -185.44 -541.22 123.78zm-2.26 -0.24l545.4 -124.73 42.74 186.87 -545.4 124.73 -42.74 -186.87z"/>
     <path id="195" class="fil196" d="M-4.62 45.11l42.63 186.4 544.01 -124.42 -42.63 -186.4 -544.01 124.42zm-2.25 -0.23l548.19 -125.38 42.96 187.82 -548.2 125.38 -42.95 -187.82z"/>
     <path id="196" class="fil197" d="M-6.12 44.95l42.85 187.35 546.79 -125.05 -42.84 -187.35 -546.8 125.05zm-2.26 -0.23l550.98 -126.02 43.18 188.78 -550.98 126.02 -43.18 -188.78z"/>
     <path id="197" class="fil198" d="M-7.63 44.8l43.07 188.3 549.59 -125.69 -43.07 -188.31 -549.59 125.7zm-2.25 -0.24l553.77 -126.66 43.39 189.74 -553.77 126.66 -43.39 -189.74z"/>
     <path id="198" class="fil199" d="M-9.13 44.64l43.28 189.26 552.38 -126.34 -43.28 -189.26 -552.38 126.34zm-2.26 -0.24l556.57 -127.29 43.61 190.69 -556.56 127.29 -43.62 -190.69z"/>
     <path id="199" class="fil200" d="M-10.63 44.48l43.5 190.21 555.17 -126.97 -43.51 -190.21 -555.16 126.97zm-2.26 -0.24l559.35 -127.93 43.83 191.65 -559.35 127.93 -43.83 -191.65z"/>
     <path id="200" class="fil201" d="M-12.14 44.32l43.72 191.17 557.96 -127.61 -43.72 -191.17 -557.96 127.61zm-2.26 -0.24l562.15 -128.57 44.05 192.61 -562.15 128.57 -44.05 -192.61z"/>
     <path id="201" class="fil202" d="M-13.64 44.16l43.94 192.13 560.75 -128.25 -43.95 -192.13 -560.74 128.25zm-2.26 -0.24l564.93 -129.2 44.27 193.56 -564.93 129.2 -44.27 -193.56z"/>
     <path id="202" class="fil203" d="M-15.15 44l44.16 193.09 563.54 -128.89 -44.16 -193.08 -563.54 128.88zm-2.25 -0.24l567.72 -129.84 44.49 194.52 -567.73 129.84 -44.48 -194.52z"/>
     <path id="203" class="fil204" d="M-16.65 43.84l44.38 194.04 566.32 -129.52 -44.37 -194.04 -566.33 129.52zm-1.51 -0.16l569.12 -130.16 44.6 195 -569.12 130.16 -44.6 -195z"/>
    </g>
   </g>
   <path class="fil0" d="M124.22 270.38l0 -5.54 0 -4.47 3.89 0 0 3 0 7.8c0,2.32 -0.97,3.47 -2.9,3.47l-7.04 0 -3.38 0 -3.58 0 -7.04 0 -7.22 0c-1.8,0 -2.7,-1.15 -2.7,-3.47l0 -7.8 0 -3 3.95 0 0 10.01c0.31,0.58 0.61,0.88 0.92,0.88l11.41 0 12.48 0 1.21 -0.88zm55.65 -5.77l0 5.56 0 4.47 3.87 0 0 -3 0 -7.8c0,-2.31 -0.96,-3.47 -2.89,-3.47l-7.03 0 -3.31 0.03 -3.66 -0.03 -7.03 0 -7.23 0c-1.8,0 -2.7,1.16 -2.7,3.47l0 7.8 0 3 3.95 0 0 -10c0.31,-0.59 0.64,-0.92 0.99,-0.98l23.97 0c0.3,0.08 0.66,0.4 1.07,0.95zm79.83 -4.24l4.95 0 -15.75 14.24 -4.04 0 -14.07 -14.24 4.94 0 11.19 10.95 12.78 -10.95zm60.59 14.27l-33.82 0 0 -14.21 33.82 0 0 3.23 -29.98 0 0 2.18 29.98 0 0 3.06 -29.98 0 0 2.18 29.98 0 0 3.56zm55.75 0l-4.03 0 -3.01 -5.74 -8.98 0 -7.11 0 -6.96 0 0 5.74 -3.81 0 0 -14.27 31.28 0c1.74,0 2.62,0.97 2.62,2.91l0 2.39c0,2.15 -0.88,3.23 -2.62,3.23l-0.31 0 2.93 5.74zm-4.68 -10.98l-0.07 0 -25.34 0 0 2.12 25.34 0c0.6,-0.23 0.92,-0.57 0.95,-1 0.02,-0.43 -0.27,-0.8 -0.88,-1.12zm60.28 7.51c0,2.32 -0.99,3.47 -2.96,3.47l-30.9 0 0 -3.5 28.84 0c0.28,-0.12 0.52,-0.28 0.7,-0.47 0.2,-0.2 0.34,-0.37 0.44,-0.5 0,-0.81 -0.35,-1.23 -1.06,-1.27l-26.25 0c-1.78,-0.04 -2.67,-1.09 -2.67,-3.15l0 -2.41c0,-1.98 0.9,-2.97 2.7,-2.97l31.16 0 0 3.35 -29.18 0c-0.23,0 -0.43,0.11 -0.61,0.31 -0.17,0.21 -0.26,0.47 -0.26,0.8 0,0.32 0.09,0.56 0.26,0.7 0.18,0.15 0.38,0.22 0.61,0.22l26.22 0c1.97,0 2.96,1.07 2.96,3.21l0 2.21zm55.64 3.47l-33.82 0 0 -14.21 33.82 0 0 3.23 -29.98 0 0 2.18 29.98 0 0 3.06 -29.98 0 0 2.18 29.98 0 0 3.56z"/>
   <polygon class="fil0" points="205.85,260.43 209.48,260.43 209.48,274.67 205.85,274.67 "/>
  </g>
 </g>
</svg>
